<svg height="512" viewBox="0 0 20 20" width="512" xmlns="http://www.w3.org/2000/svg"><g id="Layer_2" data-name="Layer 2"><path d="m18.891 8.581a9 9 0 0 0 -17.891 1.619 9.041 9.041 0 0 0 8.433 8.784c.191.012.382.018.572.018a8.91 8.91 0 0 0 3.368-.655 1 1 0 1 0 -.75-1.853 6.973 6.973 0 0 1 -3.068.494 7.117 7.117 0 0 1 -6.555-6.833 7 7 0 0 1 13.914-1.271 7.081 7.081 0 0 1 -.228 3.2 1.375 1.375 0 0 1 -1.294.936 1.479 1.479 0 0 1 -.983-.4 1.365 1.365 0 0 1 -.409-.975v-4.645a1 1 0 0 0 -1.916-.4 3.959 3.959 0 0 0 -2.084-.6 4 4 0 0 0 0 8 3.962 3.962 0 0 0 2.39-.812 3.368 3.368 0 0 0 6.2-.511 9.057 9.057 0 0 0 .301-4.096zm-8.891 3.419a2 2 0 1 1 2-2 2 2 0 0 1 -2 2z"/></g></svg>